# xmcd
#
# Track frame offsets:
# 150
# 14875
# 28378
# 37701
# 49553
# 63035
# 75322
# 86178
# 97379
# 109910
# 121431
# 140883
# 152982
# 166238
# 178299
# 191777
# 205447
# 219312
# 233156
# 248397
# 261813
#
# Disc length: 3651 seconds
#
#
# Revision: 1
# Processed by: cddbd v1.5.1PL2 Copyright (c) Steve Scherf et al.
# Submitted via: FreeRIP 2.70 
#
DISCID=300e4115
DTITLE=TAMMY WYNETTE - Anniversary: TWENTY YEARS OF HITS
DYEAR=1987
DGENRE=Country and Wester
TTITLE0=Alive and Well Tammy Wynette
TTITLE1=Apartment NO 9 Tammy Wynette
TTITLE2=Your Good Girl's Gunna Go Bad Tammy Wynette
TTITLE3=I Don't Wanna Play House Tammy Wynette
TTITLE4=D-V-O-R-C-E Tammy Wynette
TTITLE5=Stand By Your Man Tammy Wynette
TTITLE6=Singing My Song Tammy Wynette
TTITLE7=Run Women Run Tammy Wynette
TTITLE8=We Sure Can Love Each Other Tammy Wynette
TTITLE9=Good Loving' (Makes It Right) Tammy Wynette
TTITLE10=BedTime Story Tammy Wynette
TTITLE11='Til I Get It Right Tammy Wynette
TTITLE12=Kids Say The Darnest Things Tammy Wynette
TTITLE13=Another Lonely Song Tammy Wynette
TTITLE14=Were Gunna Hold On Tammy Wynette
TTITLE15=Women To Women Tammy Wynette
TTITLE16="Til I Can Make It On My Own Tammy Wynette
TTITLE17=Golden Ring Tammy Wynette
TTITLE18=You And Me Tammy Wynette
TTITLE19=One Of A Kind Tammy Wynette
TTITLE20=Two Story House Tammy Wynette
EXTD=My Music player will not play my music and when i try to rip music from my CD's to my compter i get no results
EXTT0=
EXTT1=
EXTT2=
EXTT3=
EXTT4=
EXTT5=
EXTT6=
EXTT7=
EXTT8=
EXTT9=
EXTT10=
EXTT11=
EXTT12=
EXTT13=
EXTT14=
EXTT15=
EXTT16=
EXTT17=
EXTT18=
EXTT19=
EXTT20=
PLAYORDER=
